# xmcd
#
# Track frame offsets:
# 150
# 11778
# 24132
# 33102
# 47536
# 63557
# 77726
# 87651
# 100990
# 113540
# 130356
# 147281
# 162757
#
# Disc length: 2342 seconds
#
#
# Revision: 0
# Processed by: cddbd v1.4PL0 Copyright (c) Steve Scherf et al.
# Submitted via: FreeRIP 2.52 
#
DISCID=9f09240d
DTITLE=Delene - Delene in Branson
DYEAR=1900
DGENRE=
TTITLE0=Sweet Dreams
TTITLE1=Crazy
TTITLE2=Walkin After Midnight
TTITLE3=Always
TTITLE4=To Be Forever Sung
TTITLE5=Could I Have This Dance
TTITLE6=Snow Bird
TTITLE7=Love Song
TTITLE8=Make Love to Me
TTITLE9=Close To You
TTITLE10=Superstar
TTITLE11=Rainey Days And Mondays
TTITLE12=Top Of The World
EXTD=
EXTT0=
EXTT1=
EXTT2=
EXTT3=
EXTT4=
EXTT5=
EXTT6=
EXTT7=
EXTT8=
EXTT9=
EXTT10=
EXTT11=
EXTT12=
PLAYORDER=
